<?xml version="1.0" standalone="no"?>
<!DOCTYPE svg PUBLIC "-//W3C//DTD SVG 20010904//EN"
 "http://www.w3.org/TR/2001/REC-SVG-20010904/DTD/svg10.dtd">
<svg version="1.0" xmlns="http://www.w3.org/2000/svg"
 width="1080.000000pt" height="315.000000pt" viewBox="0 0 1080.000000 315.000000"
 preserveAspectRatio="xMidYMid meet">

<g transform="translate(0.000000,315.000000) scale(0.100000,-0.100000)"
fill="#000000" stroke="none">
<path d="M3011 3010 c-47 -22 -74 -48 -97 -92 -18 -35 -5 -36 21 -2 10 14 42
37 69 51 45 23 58 25 130 19 45 -3 97 -8 116 -11 32 -4 30 -3 -19 21 -74 36
-161 42 -220 14z"/>
<path d="M3452 2930 c0 -8 4 -26 8 -40 6 -20 8 -21 8 -5 0 11 -3 29 -8 40 -5
12 -8 14 -8 5z"/>
<path d="M3465 2794 c-9 -73 -46 -180 -96 -278 -52 -103 -87 -152 -178 -256
-250 -286 -502 -474 -969 -726 -245 -132 -424 -239 -535 -318 -386 -276 -600
-527 -647 -760 -15 -74 -7 -135 30 -211 73 -152 224 -230 467 -242 204 -10
463 36 687 124 427 166 739 442 886 783 86 198 114 344 113 585 0 193 -13 286
-59 423 -38 117 -59 140 -28 32 42 -150 56 -404 30 -560 -17 -105 -83 -302
-131 -395 -105 -200 -272 -371 -518 -529 -271 -174 -562 -259 -892 -258 -210
0 -308 26 -359 95 -18 24 -21 43 -21 125 0 109 18 158 97 275 96 142 240 269
538 476 96 67 220 153 275 192 55 39 197 132 315 207 376 239 478 321 642 517
173 206 304 419 342 555 15 56 32 200 23 200 -3 0 -8 -25 -12 -56z"/>
<path d="M1447 2700 c-129 -15 -297 -66 -425 -129 l-33 -16 73 -8 c123 -13
236 -37 336 -72 l95 -33 116 87 c64 48 138 103 166 121 l50 34 -35 7 c-61 13
-262 18 -343 9z"/>
<path d="M1874 2552 c-171 -118 -234 -166 -231 -176 2 -5 32 -27 68 -48 81
-50 273 -195 318 -242 19 -20 40 -36 46 -36 5 0 86 76 179 169 l168 169 -53
42 c-29 23 -73 55 -97 72 -58 40 -242 128 -267 127 -11 0 -70 -35 -131 -77z"/>
<path d="M822 2384 c-35 -9 -62 -20 -60 -24 6 -17 291 -301 299 -298 4 2 50
42 101 89 51 47 116 106 145 130 28 24 52 49 52 55 1 6 -36 21 -81 34 -109 30
-359 38 -456 14z"/>
<path d="M2397 2172 c-64 -64 -117 -121 -117 -125 0 -3 26 5 58 19 31 14 103
44 160 66 56 23 102 45 102 48 0 7 -79 110 -84 110 -1 0 -54 -53 -119 -118z"/>
<path d="M1393 2176 c-175 -155 -233 -210 -233 -221 0 -6 74 -84 164 -174
l165 -165 73 50 c41 27 127 78 193 114 69 38 141 87 174 118 l56 52 -45 40
c-107 96 -342 258 -412 285 -11 5 -51 -24 -135 -99z"/>
<path d="M4928 2270 c-76 -23 -118 -80 -127 -175 l-6 -60 -37 -3 -38 -3 0 -54
0 -54 38 -3 37 -3 3 -192 2 -193 75 0 75 0 2 193 3 192 53 3 52 3 0 55 0 54
-55 0 -55 0 0 45 c0 61 24 85 85 85 l45 0 0 54 c0 40 -4 55 -16 60 -22 8 -103
6 -136 -4z"/>
<path d="M5161 2244 c-40 -33 -41 -74 -5 -111 22 -22 32 -25 70 -20 54 6 73
27 74 80 0 32 -5 40 -32 57 -44 27 -70 25 -107 -6z"/>
<path d="M6054 2251 c-53 -32 -53 -89 -2 -125 86 -61 187 51 107 118 -36 31
-63 33 -105 7z"/>
<path d="M8215 2257 c-3 -6 -4 -172 -3 -367 l3 -355 75 0 75 0 3 345 c1 190 0
355 -3 368 -5 20 -11 22 -76 22 -47 0 -71 -4 -74 -13z"/>
<path d="M9105 2248 c-3 -13 -4 -178 -3 -368 l3 -345 75 0 c70 0 75 1 78 22
l3 23 33 -25 c72 -55 184 -41 252 30 51 52 74 117 74 204 0 119 -34 190 -110
229 -77 38 -171 24 -225 -34 l-25 -27 0 157 0 156 -75 0 c-69 0 -75 -2 -80
-22z m329 -359 c23 -27 26 -40 26 -103 0 -102 -31 -146 -106 -146 -54 0 -90
35 -100 95 -16 110 28 185 109 185 38 0 49 -5 71 -31z"/>
<path d="M10250 1910 c0 -198 -1 -363 -2 -367 -2 -5 32 -9 75 -11 l77 -3 0
371 0 370 -75 0 -75 0 0 -360z"/>
<path d="M641 2228 c-41 -111 -40 -350 1 -492 13 -44 28 -81 33 -82 6 -2 34
25 63 59 29 34 90 103 137 152 l84 90 -147 148 c-81 81 -150 147 -155 147 -4
0 -11 -10 -16 -22z"/>
<path d="M7764 2230 c-98 -20 -177 -73 -229 -154 -43 -68 -59 -140 -53 -241
11 -164 89 -263 241 -302 85 -21 222 -13 303 19 l59 23 3 178 2 177 -145 0
-146 0 3 -62 3 -63 55 -3 c79 -4 80 -5 80 -64 0 -73 -8 -81 -78 -86 -108 -8
-187 48 -213 151 -21 87 5 201 58 249 63 58 175 73 285 38 34 -11 64 -20 66
-20 9 0 0 129 -10 138 -33 26 -196 39 -284 22z"/>
<path d="M3860 1880 l0 -350 75 0 75 0 0 350 0 350 -75 0 -75 0 0 -350z"/>
<path d="M6415 2156 l-70 -22 -1 -40 c-1 -21 -2 -44 -3 -51 0 -6 -18 -13 -38
-15 l-38 -3 0 -50 0 -50 36 -3 36 -3 5 -148 c6 -158 16 -196 62 -227 31 -19
120 -29 166 -17 34 9 35 11 38 61 l3 52 -44 0 c-27 0 -49 6 -57 15 -15 18 -25
157 -16 219 l7 46 55 0 55 0 -3 53 -3 52 -55 5 -55 5 -1 68 c-1 37 -3 69 -5
71 -2 2 -35 -6 -74 -18z"/>
<path d="M4398 2026 c-15 -6 -41 -25 -58 -41 l-30 -29 0 37 0 37 -75 0 -75 0
0 -250 0 -251 73 3 72 3 5 167 c5 159 6 168 29 192 31 33 89 36 117 5 17 -18
20 -42 24 -193 l5 -171 73 -3 72 -3 0 198 c0 187 -2 200 -23 238 -13 23 -37
48 -57 57 -40 20 -112 22 -152 4z"/>
<path d="M5665 2026 c-16 -7 -41 -25 -55 -39 -33 -35 -40 -34 -40 8 l0 35 -70
0 c-64 0 -70 -2 -75 -22 -3 -13 -4 -124 -3 -248 l3 -225 73 -3 72 -3 0 143 c0
205 17 248 101 248 67 0 74 -17 77 -216 l3 -174 76 0 75 0 -4 203 c-3 193 -4
204 -27 241 -14 21 -39 44 -57 52 -41 17 -109 17 -149 0z"/>
<path d="M8641 2028 c-73 -21 -142 -88 -161 -158 -5 -19 -10 -64 -10 -101 0
-161 118 -261 294 -247 146 12 235 112 236 263 0 159 -101 256 -264 254 -33 0
-76 -5 -95 -11z m152 -120 c34 -17 45 -38 52 -94 14 -106 -29 -174 -111 -174
-56 0 -92 30 -105 89 -24 106 21 191 101 191 23 0 51 -5 63 -12z"/>
<path d="M9803 2026 c-70 -17 -83 -30 -83 -81 0 -23 2 -44 5 -47 3 -3 31 5 63
18 78 32 135 32 168 -1 45 -45 31 -58 -83 -77 -116 -19 -133 -26 -168 -73 -32
-42 -37 -122 -11 -174 20 -38 83 -71 136 -71 42 0 118 33 126 55 10 25 24 17
24 -15 l0 -30 70 0 70 0 0 178 c0 97 -5 193 -10 212 -27 100 -154 143 -307
106z m177 -295 c0 -55 -39 -101 -87 -101 -52 0 -73 15 -73 54 0 53 20 64 153
85 4 0 7 -17 7 -38z"/>
<path d="M433 1965 c-82 -181 -123 -350 -126 -520 -2 -119 10 -245 23 -245 4
0 41 46 81 103 40 56 89 122 109 147 20 25 40 50 44 57 3 6 -11 65 -33 130
-36 110 -58 231 -64 348 l-2 50 -32 -70z"/>
<path d="M5140 1780 l0 -250 75 0 75 0 0 250 0 250 -75 0 -75 0 0 -250z"/>
<path d="M6027 2024 c-10 -10 -8 -466 2 -482 5 -9 28 -12 77 -10 l69 3 0 245
0 245 -70 3 c-39 1 -74 0 -78 -4z"/>
<path d="M6630 2026 c0 -3 23 -59 50 -125 28 -67 73 -176 100 -242 l51 -122
-17 -43 c-24 -64 -45 -78 -110 -77 l-54 1 0 -47 c0 -26 5 -52 12 -59 16 -16
121 -15 162 2 38 16 68 45 100 96 20 32 89 201 135 330 22 62 73 201 90 243
18 46 15 48 -61 45 l-71 -3 -27 -85 c-15 -47 -38 -121 -50 -165 -13 -44 -26
-83 -29 -87 -4 -4 -31 71 -60 167 l-54 175 -84 0 c-45 0 -83 -2 -83 -4z"/>
<path d="M2645 1969 c-603 -242 -1124 -557 -1431 -863 -157 -157 -251 -295
-317 -464 -19 -49 -22 -76 -22 -197 l0 -140 43 -80 c37 -72 101 -155 118 -155
4 0 -6 16 -20 35 -15 19 -41 65 -58 102 -27 57 -32 80 -36 170 -4 79 -1 118
13 165 88 316 441 654 1100 1057 186 113 621 361 635 361 4 0 13 7 20 15 15
18 16 18 -45 -6z"/>
<path d="M1021 1823 c-13 -15 -51 -57 -85 -93 -66 -70 -171 -189 -191 -217
-16 -22 6 -69 103 -214 108 -162 87 -160 233 -16 68 68 160 152 204 186 44 35
81 67 83 70 3 9 -295 305 -311 309 -7 1 -23 -10 -36 -25z"/>
<path d="M598 1328 c-53 -67 -86 -114 -156 -217 l-64 -96 17 -50 c25 -71 61
-138 118 -225 52 -78 108 -150 118 -150 3 0 13 24 24 53 38 109 120 267 187
361 17 24 25 43 19 50 -73 94 -125 167 -166 234 -27 45 -53 82 -56 82 -4 0
-22 -19 -41 -42z"/>
<path d="M7150 856 c0 -217 1 -226 20 -226 10 0 23 7 27 15 7 13 14 12 48 -5
50 -25 97 -14 141 31 28 29 29 34 29 120 0 90 0 91 -33 120 -44 39 -107 41
-151 3 l-30 -25 -3 93 c-3 88 -4 93 -25 96 l-23 3 0 -225z m197 22 c20 -18 23
-31 23 -90 0 -60 -3 -72 -25 -93 -32 -33 -89 -34 -122 -3 -20 18 -23 31 -23
88 0 59 3 70 26 94 34 33 88 35 121 4z"/>
<path d="M4570 1046 c0 -29 28 -42 48 -22 20 20 8 46 -23 46 -20 0 -25 -5 -25
-24z"/>
<path d="M6680 1046 c0 -24 23 -41 41 -30 5 3 9 16 9 30 0 19 -5 24 -25 24
-20 0 -25 -5 -25 -24z"/>
<path d="M9017 1058 c-5 -16 10 -48 23 -48 16 0 39 31 34 45 -7 18 -51 20 -57
3z"/>
<path d="M3857 1053 l-27 -4 2 -207 3 -207 58 -3 c89 -5 158 13 204 53 54 46
73 89 73 167 0 131 -65 193 -210 201 -41 2 -87 2 -103 0z m188 -60 c52 -25 79
-87 72 -163 -9 -104 -64 -150 -178 -150 l-59 0 0 165 0 165 65 0 c40 0 78 -6
100 -17z"/>
<path d="M5653 1013 c-7 -2 -13 -20 -13 -39 0 -28 -4 -35 -25 -40 -26 -6 -37
-46 -12 -43 35 4 37 0 37 -111 0 -129 11 -150 80 -150 33 0 40 3 40 20 0 15
-7 20 -28 20 -46 0 -52 15 -52 122 0 95 1 98 23 99 47 3 52 4 55 22 3 12 -3
17 -21 17 -46 0 -57 10 -57 51 0 39 -3 42 -27 32z"/>
<path d="M8523 1012 c-6 -4 -13 -23 -15 -42 -2 -27 -8 -36 -25 -38 -15 -2 -23
-10 -23 -23 0 -14 6 -18 23 -16 21 2 22 -1 27 -116 6 -134 13 -147 82 -147 31
0 38 4 38 20 0 16 -7 20 -30 20 -41 0 -50 23 -50 129 l0 90 37 3 c27 2 39 8
41 21 3 13 -3 17 -25 17 -38 0 -53 16 -53 57 0 33 -6 39 -27 25z"/>
<path d="M4587 932 c-16 -3 -17 -17 -15 -150 3 -139 4 -147 23 -147 19 0 20 8
23 144 1 80 -1 147 -5 151 -4 4 -16 5 -26 2z"/>
<path d="M5063 921 c-38 -24 -52 -71 -30 -104 8 -12 41 -35 73 -52 52 -27 59
-33 59 -60 0 -29 -2 -30 -47 -33 -26 -2 -57 2 -68 8 -16 9 -22 8 -26 -5 -22
-56 123 -68 177 -14 24 24 25 80 1 102 -10 9 -39 26 -65 37 -101 45 -77 114
33 96 30 -5 40 -3 40 7 0 40 -91 51 -147 18z"/>
<path d="M6225 916 c-23 -23 -25 -23 -30 -5 -4 10 -15 19 -26 19 -18 0 -19 -8
-19 -150 0 -141 1 -150 19 -150 26 0 31 18 31 125 0 108 13 135 70 140 19 1
35 8 34 14 -2 28 -5 31 -29 31 -14 0 -37 -11 -50 -24z"/>
<path d="M8037 929 c-14 -9 -17 -26 -17 -113 0 -89 -3 -105 -20 -124 -31 -33
-85 -33 -112 0 -15 17 -18 40 -18 129 l0 109 -25 0 -25 0 1 -107 c1 -60 4
-119 8 -132 16 -59 106 -83 160 -43 28 21 29 21 34 2 3 -12 14 -20 26 -20 20
0 21 4 21 149 0 83 -3 152 -8 155 -4 2 -15 0 -25 -5z"/>
<path d="M9544 924 c-96 -47 -100 -229 -5 -279 43 -22 119 -19 159 5 68 41 90
154 46 230 -33 55 -133 77 -200 44z m141 -50 c45 -49 41 -155 -8 -189 -22 -15
-82 -20 -112 -9 -26 10 -45 59 -45 114 0 44 5 56 29 81 40 39 101 41 136 3z"/>
<path d="M10247 920 c-30 -24 -37 -25 -37 -5 0 8 -9 15 -20 15 -19 0 -20 -7
-20 -150 0 -141 1 -150 19 -150 17 0 19 10 23 104 2 87 6 109 24 133 22 29 50
39 89 29 33 -8 39 -28 45 -151 4 -94 8 -110 23 -113 15 -3 17 8 17 123 0 127
0 127 -29 156 -36 36 -95 40 -134 9z"/>
<path d="M6680 779 c0 -150 0 -150 23 -147 22 3 22 6 25 151 l3 147 -26 0 -25
0 0 -151z"/>
<path d="M9022 783 c3 -140 4 -148 23 -148 19 0 20 8 23 148 l3 147 -26 0 -26
0 3 -147z"/>
<path d="M2625 788 c-180 -148 -411 -271 -680 -363 -22 -8 -103 -30 -179 -49
-76 -20 -141 -38 -144 -41 -12 -11 174 -4 258 11 223 38 405 115 577 242 98
73 248 232 232 246 -2 2 -31 -19 -64 -46z"/>
</g>
</svg>
